<svg width="23.261719" height="23.261719" viewBox="0 0 23.2617 23.2617" fill="none" xmlns="http://www.w3.org/2000/svg" xmlns:xlink="http://www.w3.org/1999/xlink">
	<desc>
			Created with Pixso.
	</desc>
	<defs>
		<clipPath id="clip3702_917">
			<rect id="4362954_vk_vkontakte_logo_social media_icon 1" width="23.261538" height="23.261538" fill="white" fill-opacity="0"/>
		</clipPath>
	</defs>
	<rect id="4362954_vk_vkontakte_logo_social media_icon 1" width="23.261538" height="23.261538" fill="#FFFFFF" fill-opacity="0"/>
	<g clip-path="url(#clip3702_917)">
		<path id="Vector" d="M1.45 5.05C2.21 5.05 3.38 5.05 4.03 5.05C4.36 5.05 4.61 5.27 4.72 5.56C5.05 6.5 5.77 8.57 6.61 9.99C7.74 11.84 8.46 12.53 8.94 12.46C9.41 12.35 9.26 11.12 9.26 10.14C9.26 9.15 9.37 7.48 8.9 6.72L8.17 5.66C7.99 5.41 8.17 5.08 8.46 5.08L12.61 5.08C13.01 5.08 13.33 5.41 13.33 5.81L13.33 11.08C13.33 11.08 13.52 12.03 14.53 11.04C15.55 10.06 16.64 8.25 17.55 6.39L17.91 5.52C18.02 5.27 18.28 5.08 18.57 5.08L21.26 5.08C21.77 5.08 22.13 5.59 21.95 6.06L21.66 6.83C21.66 6.83 20.68 8.79 19.66 10.17C18.64 11.59 18.42 11.92 18.57 12.28C18.71 12.64 21.33 15.08 21.99 16.24C22.17 16.57 22.31 16.86 22.46 17.11C22.71 17.59 22.35 18.2 21.8 18.2L18.75 18.2C18.5 18.2 18.24 18.06 18.13 17.84L17.84 17.37C17.84 17.37 15.99 15.19 14.86 14.5C13.7 13.84 13.73 14.79 13.73 14.79L13.73 16.71C13.73 17.51 13.08 18.17 12.28 18.17L11.55 18.17C11.55 18.17 7.56 18.17 4.36 13.41C1.85 9.7 1.01 7.3 0.72 5.92C0.65 5.48 0.98 5.05 1.45 5.05Z" fill="#5181B8" fill-opacity="1.000000" fill-rule="nonzero"/>
	</g>
</svg>
